<?xml version="1.0" encoding="UTF-8"?>
<svg width="206px" height="34px" viewBox="0 0 206 34" version="1.1" xmlns="http://www.w3.org/2000/svg" xmlns:xlink="http://www.w3.org/1999/xlink">
    <!-- Generator: Sketch 59.1 (86144) - https://sketch.com -->
    <title>Logo</title>
    <desc>Created with Sketch.</desc>
    <g id="Symbols" stroke="none" stroke-width="1" fill="none" fill-rule="evenodd">
        <g id="Left-Navigation---Project-1" transform="translate(-30.000000, -65.000000)">
            <g id="Left-Navigation">
                <g id="Logo" transform="translate(30.000000, 63.000000)">
                    <g id="icon-TaskTrakk" transform="translate(0.000000, 2.000000)" fill="#291A64" fill-rule="nonzero">
                        <path d="M41.8244539,7.22463297 C37.197023,2.56578916 31.0443118,0 24.5001869,0 C17.956062,0 11.8033508,2.56578916 7.17591994,7.22463297 C2.54848896,11.8838532 0,18.0779552 0,24.6665043 C0,26.4791552 0.196267648,28.2876658 0.583569186,30.0419775 C0.807127458,31.0536896 1.09760359,32.0608852 1.44677317,33.035712 C1.65948992,33.6300176 2.2161424,34 2.80943155,34 C2.972801,34 3.13841355,33.9717714 3.30103536,33.9130561 C4.05358167,33.6394271 4.44350013,32.8038613 4.17208993,32.0462064 C3.86441697,31.1873049 3.60870823,30.3001749 3.41206676,29.4089048 C3.17467632,28.3328315 3.02027911,27.2334227 2.94737966,26.1249806 L7.40134741,26.1249806 C8.20137172,26.1249806 8.84998967,25.4719597 8.84998967,24.6665043 C8.84998967,23.861049 8.20137172,23.208028 7.40134741,23.208028 L2.94700584,23.208028 C3.13878737,20.3080125 3.89731517,17.5619368 5.11230557,15.0808334 L8.9677503,17.3221822 C9.19579469,17.4546683 9.4447742,17.5179003 9.69076297,17.5179003 C10.191339,17.5179003 10.6784567,17.2563155 10.9465022,16.7884739 C11.3465145,16.0906636 11.1091241,15.1986406 10.4163927,14.795913 L6.56431249,12.5568224 C8.13221076,10.2104634 10.1416179,8.18741558 12.4717824,6.60887377 L14.6961494,10.4871035 C14.964195,10.9553213 15.4513127,11.2169061 15.9518887,11.2169061 C16.1975037,11.2169061 16.446857,11.1536741 16.6749014,11.021188 C17.3680066,10.6184604 17.605397,9.72643741 17.2050111,9.02862711 L14.9791487,5.14700992 C17.443523,3.92377176 20.170709,3.16009476 23.0511707,2.9673877 L23.0511707,7.45159073 C23.0511707,8.25704604 23.6997887,8.91006707 24.4998131,8.91006707 C25.2998375,8.91006707 25.9488293,8.25704604 25.9488293,7.45159073 L25.9488293,2.9673877 C28.8289172,3.16047112 31.556477,3.92377176 34.0208513,5.14700992 L31.7946151,9.02900346 C31.3946029,9.72643741 31.6319933,10.6184604 32.3250986,11.021188 C32.5531429,11.1536741 32.8021225,11.2169061 33.0481113,11.2169061 C33.5486873,11.2169061 34.0354311,10.9553213 34.3038506,10.4874798 L36.5278436,6.60887377 C38.8583821,8.18741558 40.8677892,10.2104634 42.4356875,12.5568224 L38.5836073,14.795913 C37.890502,15.1986406 37.6531117,16.0906636 38.0531238,16.7884739 C38.3215433,17.2563155 38.8086609,17.5179003 39.3092369,17.5179003 C39.554852,17.5179003 39.8042053,17.4550446 40.0322497,17.3221822 L43.8876944,15.0812097 C45.1026848,17.5619368 45.8612126,20.3080125 46.0529942,23.208028 L41.5986526,23.208028 C40.7982544,23.208028 40.1496364,23.861049 40.1496364,24.6665043 C40.1496364,25.4719597 40.7982544,26.1249806 41.5986526,26.1249806 L46.0526203,26.1249806 C45.9834593,27.1743309 45.8417728,28.2161535 45.6253176,29.2361459 C45.4462466,30.0784865 45.2148377,30.9185688 44.9370723,31.7326809 C44.6772512,32.4948525 45.0802541,33.3243961 45.8369127,33.5859809 C46.5935714,33.8471894 47.4178956,33.441827 47.6777167,32.6800319 C47.9928664,31.7556402 48.2556782,30.8022671 48.4586751,29.8462594 C48.8179383,28.1540505 49,26.4114066 49,24.6665043 C49,18.0779552 46.4518849,11.8838532 41.8244539,7.22463297 L41.8244539,7.22463297 Z" id="Path"></path>
                        <path d="M32.4492918,14.4720085 L26.1735604,21.2512809 C25.571549,20.9074434 24.8757226,20.7098225 24.1346978,20.7098225 C21.8546509,20.7098225 20,22.5695151 20,24.8549113 C20,27.1406882 21.8546509,29 24.1346978,29 C26.414365,29 28.2693957,27.1406882 28.2693957,24.8549113 C28.2693957,24.400269 28.1945716,23.9627614 28.0589766,23.5530503 L34.6070375,16.4794408 C35.1600524,15.8820087 35.125109,14.9483548 34.5291748,14.3939501 C33.9332405,13.8395455 33.0023067,13.8745764 32.4492918,14.4720085 L32.4492918,14.4720085 Z M24.1346978,26.0490137 C23.4779926,26.0490137 22.9435888,25.5132668 22.9435888,24.8549113 C22.9435888,24.1965558 23.4779926,23.6611897 24.1346978,23.6611897 C24.791403,23.6611897 25.3258068,24.1965558 25.3258068,24.8549113 C25.3258068,25.5132668 24.791403,26.0490137 24.1346978,26.0490137 L24.1346978,26.0490137 Z" id="Shape"></path>
                    </g>
                    <text id="TrakTime" font-family="Quicksand-Bold, Quicksand" font-size="31" font-weight="bold" fill="#19124B">
                        <tspan x="64" y="31">TrakTime</tspan>
                    </text>
                </g>
            </g>
        </g>
    </g>
</svg>