<?xml version="1.0" encoding="UTF-8"?>
<svg width="35px" height="29px" viewBox="0 0 35 29" version="1.1" xmlns="http://www.w3.org/2000/svg" xmlns:xlink="http://www.w3.org/1999/xlink">
    <!-- Generator: Sketch 59.1 (86144) - https://sketch.com -->
    <title>001-ui</title>
    <desc>Created with Sketch.</desc>
    <g id="Symbols" stroke="none" stroke-width="1" fill="none" fill-rule="evenodd">
        <g id="Left-Navigation---Project-1" transform="translate(-28.000000, -154.000000)" fill="#7F7C8B" fill-rule="nonzero">
            <g id="Left-Navigation">
                <g id="Dashboard" transform="translate(28.000000, 154.000000)">
                    <g id="001-ui">
                        <path d="M23.2858144,11.5275661 L20.4264124,13.1391981 C19.4136842,13.6949041 18.3414085,14.195059 17.3287501,14.6396629 C17.0308725,14.7508301 16.6734472,14.9175484 16.316022,15.0842667 C15.0650336,15.6955889 14.4097307,16.9737192 14.7076083,18.2519146 C14.9458686,19.2522244 15.8394317,20.0858159 16.9117075,20.3080853 C17.1499677,20.3636364 17.3882977,20.3636364 17.626558,20.3636364 C18.7583813,20.3636364 19.7711095,19.7523142 20.3072474,18.8076205 C20.4264124,18.529735 20.605125,18.1962984 20.7838377,17.8628618 C21.3199755,16.918103 21.7965658,15.9177932 22.3922513,14.9730995 L24.11983,12.3056066 C24.238995,12.0833372 24.1793776,11.8610027 24.0006649,11.6387334 C23.8219523,11.4163989 23.5240747,11.4163989 23.2858144,11.5275661 L23.2858144,11.5275661 Z M21.3795231,14.3617773 C20.7242202,15.3620872 20.1880824,16.362397 19.7115619,17.3627069 C19.5923969,17.6961435 19.4136842,17.974029 19.2349716,18.3074656 C18.8775464,19.0298899 18.0435308,19.3633265 17.2095851,19.1966082 C16.5542822,19.085441 16.0181443,18.5852861 15.8990491,17.974029 C15.7203365,17.1959885 16.0777617,16.4180132 16.8521599,16.0845766 C17.1500375,15.9178583 17.5074628,15.806691 17.864888,15.6399727 C18.9371638,15.1398178 20.0689871,14.6396629 21.0817153,14.0839569 L21.8561134,13.6393531 L21.3795231,14.3617773 Z" id="Shape"></path>
                        <path d="M33.7503223,11.0451209 C33.7429395,11.0057413 33.7318652,10.9666357 33.7166895,10.9285573 C33.7014453,10.890342 33.6820313,10.8553455 33.6594727,10.8232939 C32.7853613,8.72651873 31.5153809,6.83294224 29.9442773,5.23721247 C29.9221289,5.2042021 29.8963574,5.17256145 29.8666895,5.14283841 C29.8370215,5.11311538 29.8054395,5.08729606 29.7724902,5.06510651 C26.6077246,1.93768164 22.2690234,0 17.5,0 C15.2155664,0 13.0300488,0.445160663 11.0246582,1.25199724 C10.9853516,1.25939376 10.9463184,1.27048853 10.9083789,1.28569248 C10.8703027,1.30096492 10.8353027,1.32041501 10.8033105,1.34301548 C8.71041992,2.21874923 6.82035156,3.49108689 5.22757813,5.06510651 C5.19462891,5.08729606 5.16304688,5.11311538 5.13337891,5.14283841 C5.10371094,5.17256145 5.07787109,5.2042021 5.05579102,5.23721247 C1.9340918,8.40785218 0,12.7546064 0,17.5324815 C0,21.5065335 1.28331055,25.3051921 3.79168945,28.40262 C3.90837891,28.5779449 4.08337891,28.6363636 4.25837891,28.6363636 L30.7416895,28.6363636 C30.9166895,28.6363636 31.0916895,28.5779449 31.2083789,28.40262 C33.7166895,25.3052606 35,21.5065335 35,17.5324815 C35,15.2438078 34.5556641,13.0542337 33.7503223,11.0451209 Z M30.5083105,27.4675772 L4.55,27.4675772 C3.76120117,26.4485017 3.10611328,25.3551871 2.58842773,24.2065356 L4.2,23.5520125 C4.49168945,23.4351064 4.60831055,23.0844568 4.49168945,22.7922944 C4.375,22.5000636 4.025,22.383226 3.73337891,22.5000636 L2.15359375,23.1417113 C1.56748047,21.5431051 1.23798828,19.8529328 1.17755859,18.1169432 L5.25,18.1169432 C5.6,18.1169432 5.83331055,17.8831996 5.83331055,17.53255 C5.83331055,17.1819004 5.6,16.9480883 5.25,16.9480883 L1.17831055,16.9480883 C1.24373047,15.1053286 1.6169043,13.3378353 2.24799805,11.6956034 L3.85,12.3896431 C3.90831055,12.4480619 4.025,12.4480619 4.08331055,12.4480619 C4.31662109,12.4480619 4.49162109,12.3311558 4.60831055,12.0974122 C4.725,11.8051814 4.60831055,11.4545318 4.31662109,11.3376942 L2.69841797,10.6366004 C3.42979492,9.07299069 4.40097656,7.64231281 5.56417969,6.39271258 L6.76662109,7.59738583 C6.88331055,7.71429186 6.99993164,7.77271064 7.17493164,7.77271064 C7.34993164,7.77271064 7.46662109,7.71429186 7.58324219,7.59738583 C7.81655273,7.36364223 7.81655273,7.0129926 7.58324219,6.77918053 L6.38080078,5.57450728 C7.68762695,4.35353431 9.19249023,3.34315658 10.8408398,2.5996013 L11.4916211,4.20779556 C11.5499316,4.44153915 11.7833105,4.55844519 12.0166211,4.55844519 C12.0749316,4.55844519 12.1333105,4.55844519 12.2499316,4.50002642 C12.5416211,4.38312038 12.6582422,4.03247075 12.5416211,3.74030838 L11.9038965,2.16430266 C13.4775977,1.58470348 15.1632031,1.24302554 16.9166211,1.18049759 L16.9166211,5.25981294 C16.9166211,5.61046257 17.1499316,5.84420616 17.4999316,5.84420616 C17.8499316,5.84420616 18.0832422,5.61046257 18.0832422,5.25981294 L18.0832422,1.18049759 C19.9225879,1.24603894 21.6868066,1.61990541 23.3259961,2.25217053 L22.6332422,3.85721442 C22.5165527,4.14944527 22.6332422,4.5000949 22.9249316,4.61693245 C22.9832422,4.67535123 23.0999316,4.67535123 23.1582422,4.67535123 C23.3915527,4.67535123 23.6249316,4.50002642 23.6832422,4.3247016 L24.3830371,2.70349495 C25.94375,3.4362294 27.3717773,4.40921364 28.6190625,5.57457577 L27.4166211,6.77924901 C27.1833105,7.0129926 27.1833105,7.36364223 27.4166211,7.59745431 C27.5333105,7.71436035 27.6499316,7.77277913 27.8249316,7.77277913 C27.9416211,7.77277913 28.1166211,7.71436035 28.2332422,7.59745431 L29.4356836,6.39278107 C30.6543945,7.70203282 31.6629004,9.20968926 32.4050781,10.8610983 L30.7998633,11.5130875 C30.5081738,11.6299935 30.3915527,11.9806432 30.5081738,12.2728055 C30.5664844,12.5065491 30.7998633,12.6234552 31.0331738,12.6234552 C31.0914844,12.6234552 31.1498633,12.5650364 31.2664844,12.5650364 L32.8396387,11.9261281 C33.4181641,13.5027502 33.759209,15.1914843 33.8215527,16.9481568 L29.75,16.9481568 C29.4,16.9481568 29.1666895,17.1819004 29.1666895,17.53255 C29.1666895,17.8831996 29.4,18.1169432 29.75,18.1169432 L33.8225098,18.1169432 C33.7591406,19.9381982 33.4005957,21.7090473 32.7685449,23.3766192 L31.15,22.6753884 C30.8583105,22.5584824 30.5083105,22.6753884 30.3916895,22.9676193 C30.275,23.2598501 30.3916895,23.6104997 30.6833789,23.7273373 L32.3227051,24.4375398 C31.8311328,25.5018847 31.2247168,26.5170564 30.5083105,27.4675772 L30.5083105,27.4675772 Z" id="Shape"></path>
                    </g>
                </g>
            </g>
        </g>
    </g>
</svg>