<?xml version="1.0" encoding="UTF-8"?>
<svg width="35px" height="32px" viewBox="0 0 35 32" version="1.1" xmlns="http://www.w3.org/2000/svg" xmlns:xlink="http://www.w3.org/1999/xlink">
    <!-- Generator: Sketch 59.1 (86144) - https://sketch.com -->
    <title>007-folder</title>
    <desc>Created with Sketch.</desc>
    <g id="Symbols" stroke="none" stroke-width="1" fill="none" fill-rule="evenodd">
        <g id="Left-Navigation---Project-1" transform="translate(-29.000000, -237.000000)" fill="#291A64" fill-rule="nonzero">
            <g id="Left-Navigation">
                <g id="First-Project" transform="translate(0.000000, 216.250000)">
                    <g id="007-folder" transform="translate(29.000000, 21.000000)">
                        <path d="M32.8554274,10.122449 L30.8717949,10.122449 L30.8717949,6.15697959 C30.8717949,5.20357143 30.1749658,4.42857143 29.3189915,4.42857143 L15.2499786,4.42857143 L12.4080983,0 L1.7322906,0 C0.876316239,0 0.179487179,0.775632653 0.179487179,1.72840816 L0.179487179,29.3671224 L0.182897436,29.3671224 C0.180055556,29.7233061 0.279521368,30.071898 0.479589744,30.363551 C0.758094017,30.768449 1.17982906,31 1.63737179,31 L27.0773162,31 C27.734359,31 28.3129658,30.5071633 28.4698376,29.853 L34.2820513,12.1146735 L34.2820513,12.0026939 C34.2820513,10.9132653 33.6818462,10.122449 32.8554274,10.122449 Z M1.31623932,1.72840816 C1.31623932,1.47281633 1.50323504,1.26530612 1.7322906,1.26530612 L11.8226709,1.26530612 L14.6645513,5.69387755 L29.3184231,5.69387755 C29.548047,5.69387755 29.7344744,5.90138776 29.7344744,6.15697959 L29.7344744,10.122449 L7.41548291,10.122449 C7.33363675,10.122449 7.25235897,10.1300408 7.1733547,10.1452245 C6.62032479,10.2483469 6.16050855,10.6975306 6.02352991,11.2688163 L1.31623932,25.558551 L1.31623932,1.72840816 Z M27.3870812,29.4708776 C27.3495684,29.6258776 27.2216838,29.7346939 27.0773162,29.7346939 L1.63737179,29.7346939 C1.49925641,29.7346939 1.41854701,29.6467551 1.38273932,29.5942449 C1.34693162,29.5423673 1.29179915,29.4322857 1.31282906,29.3361224 L7.10514957,11.6515714 C7.14266239,11.4965714 7.27054701,11.3877551 7.41491453,11.3877551 L30.8717949,11.3877551 L32.8554274,11.3877551 C33.0714103,11.3877551 33.1265427,11.7331837 33.1407521,11.905898 L27.3870812,29.4708776 Z" id="Shape"></path>
                    </g>
                </g>
            </g>
        </g>
    </g>
</svg>