<?xml version="1.0" encoding="UTF-8"?>
<svg width="35px" height="34px" viewBox="0 0 35 34" version="1.1" xmlns="http://www.w3.org/2000/svg" xmlns:xlink="http://www.w3.org/1999/xlink">
    <!-- Generator: Sketch 59.1 (86144) - https://sketch.com -->
    <title>006-graph</title>
    <desc>Created with Sketch.</desc>
    <g id="Symbols" stroke="none" stroke-width="1" fill="none" fill-rule="evenodd">
        <g id="Left-Navigation---Project-1" transform="translate(-28.000000, -405.000000)" fill="#7F7C8B" fill-rule="nonzero">
            <g id="Left-Navigation">
                <g id="Milestones" transform="translate(28.000000, 405.750000)">
                    <g id="006-graph">
                        <path d="M34.4166667,31.1694809 L34.4166667,8.97435897 L27.4166667,8.97435897 L27.4166667,31.1694809 L25.6666667,31.1694809 L25.6666667,13.5272045 L18.6666667,13.5272045 L18.6666667,31.1694809 L16.9166667,31.1694809 L16.9166667,18.08005 L9.91666667,18.08005 L9.91666667,31.1694809 L8.16666667,31.1694809 L8.16666667,23.2020013 L1.16666667,23.2020013 L1.16666667,31.1694809 L0.583333333,31.1694809 C0.261333333,31.1694809 0,31.4238712 0,31.7385866 C0,32.0533021 0.261333333,32.3076923 0.583333333,32.3076923 L1.16666667,32.3076923 L8.16666667,32.3076923 L9.91666667,32.3076923 L16.9166667,32.3076923 L18.6666667,32.3076923 L25.6666667,32.3076923 L27.4166667,32.3076923 L34.4166667,32.3076923 C34.7386667,32.3076923 35,32.0533021 35,31.7385866 C35,31.4238712 34.7386667,31.1694809 34.4166667,31.1694809 Z M2.33333333,31.1694809 L2.33333333,24.3402126 L7,24.3402126 L7,31.1694809 L2.33333333,31.1694809 Z M11.0833333,31.1694809 L11.0833333,19.2182614 L15.75,19.2182614 L15.75,31.1694809 L11.0833333,31.1694809 Z M19.8333333,31.1694809 L19.8333333,14.6654159 L24.5,14.6654159 L24.5,31.1694809 L19.8333333,31.1694809 Z M28.5833333,31.1694809 L28.5833333,10.1125704 L33.25,10.1125704 L33.25,31.1694809 L28.5833333,31.1694809 Z" id="Shape"></path>
                        <path d="M4.18194158,14.3589744 C4.28189917,14.3589744 4.38422263,14.3345988 4.47708264,14.2830134 L25.9289289,2.41270272 L24.5863032,5.24139663 C24.4508577,5.52653351 24.582163,5.86268892 24.8796699,5.99193586 C24.9589262,6.02708195 25.0423228,6.04295438 25.1245364,6.04295438 C25.3492931,6.04295438 25.563995,5.91937617 25.6633611,5.71076708 L27.7701596,1.27215519 C27.7766657,1.25798338 27.7754828,1.24267782 27.780806,1.22793914 C27.7920438,1.19789489 27.8009158,1.16898439 27.8068305,1.13723953 C27.8097878,1.1213671 27.8192512,1.10832903 27.8205128,1.09188973 C27.8210256,1.08508726 27.8180683,1.07941853 27.8186598,1.07261606 C27.8198427,1.05107491 27.8174768,1.03123437 27.8162939,1.00969321 C27.8145195,0.978515225 27.8091963,0.949037854 27.8020987,0.917859865 C27.797367,0.896318709 27.7961841,0.87421068 27.788495,0.853236397 C27.7813975,0.832828986 27.7689767,0.81582281 27.7595133,0.795982271 C27.7518242,0.782944203 27.7518242,0.767638645 27.7435437,0.754033704 C27.7352632,0.740428764 27.721068,0.732492548 27.7116046,0.71945448 C27.6991838,0.701881432 27.6897204,0.683174638 27.6749338,0.667302208 C27.6595557,0.650296032 27.6400373,0.638391709 27.6222934,0.62308615 C27.5980433,0.602111867 27.5737932,0.582838201 27.5465858,0.565832025 C27.5282504,0.554494575 27.5116894,0.542023379 27.4915796,0.532386546 C27.4850735,0.529552183 27.4815247,0.523883458 27.4750186,0.521049096 C27.4602319,0.514813498 27.4442624,0.515947243 27.4294758,0.51084539 C27.3969452,0.499507939 27.3650061,0.491571724 27.3312926,0.485902999 C27.3159145,0.483068636 27.3034937,0.474565548 27.2875241,0.473431803 L22.2234003,0.0029276056 C21.8951372,-0.0288172559 21.6088681,0.20133299 21.5775205,0.511979135 C21.5455813,0.823759025 21.7839418,1.10095969 22.1086561,1.13100393 L25.3356894,1.4308795 L3.88561758,13.3011902 C3.60230582,13.457647 3.50589702,13.804573 3.66914137,14.0755381 C3.77856241,14.2575042 3.97729467,14.3589744 4.18194158,14.3589744 Z" id="Path"></path>
                    </g>
                </g>
            </g>
        </g>
    </g>
</svg>