<?xml version="1.0" encoding="UTF-8"?>
<svg width="35px" height="35px" viewBox="0 0 35 35" version="1.1" xmlns="http://www.w3.org/2000/svg" xmlns:xlink="http://www.w3.org/1999/xlink">
    <!-- Generator: Sketch 59.1 (86144) - https://sketch.com -->
    <title>009-settings-1</title>
    <desc>Created with Sketch.</desc>
    <g id="Symbols" stroke="none" stroke-width="1" fill="none" fill-rule="evenodd">
        <g id="Left-Navigation---Project-1" transform="translate(-29.000000, -495.000000)" fill="#7F7C8B" fill-rule="nonzero">
            <g id="Left-Navigation">
                <g id="Settings" transform="translate(29.000000, 495.000000)">
                    <g id="009-settings-1">
                        <path d="M17.5,8.57142857 C12.5765306,8.57142857 8.57142857,12.5765306 8.57142857,17.5 C8.57142857,22.4234694 12.5765306,26.4285714 17.5,26.4285714 C22.4234694,26.4285714 26.4285714,22.4234694 26.4285714,17.5 C26.4285714,12.5765306 22.4234694,8.57142857 17.5,8.57142857 Z M17.5,25.1530612 C13.2799745,25.1530612 9.84693878,21.7200255 9.84693878,17.5 C9.84693878,13.2799745 13.2799745,9.84693878 17.5,9.84693878 C21.7200255,9.84693878 25.1530612,13.2799745 25.1530612,17.5 C25.1530612,21.7200255 21.7200255,25.1530612 17.5,25.1530612 Z" id="Shape"></path>
                        <path d="M33.1975334,13.6108591 L31.8895946,13.6108591 C31.5558045,12.3716227 31.0651655,11.1855336 30.4248069,10.0739801 L31.3490491,9.14973797 C31.6893206,8.80946649 31.8766319,8.35641933 31.8766319,7.87550231 C31.8766319,7.39393715 31.6893206,6.94153812 31.3490491,6.60061851 L28.3980852,3.64965464 C27.7175423,2.96975982 26.530805,2.96846355 25.8489658,3.64965464 L24.9247236,4.57389678 C23.812522,3.9341864 22.627081,3.44354734 21.3884928,3.10975723 L21.3884928,1.80181848 C21.3884928,0.808225774 20.580267,0 19.5866743,0 L15.4126775,0 C14.4190848,0 13.6108591,0.808225774 13.6108591,1.80181848 L13.6108591,3.10975723 C12.3722709,3.44354734 11.1868299,3.9341864 10.0739801,4.57454492 L9.14973797,3.65030277 C8.46854688,2.96846355 7.28116146,2.96975982 6.60061851,3.65030277 L3.64965464,6.60126664 C3.30938316,6.94153812 3.12207181,7.39458529 3.12207181,7.87615044 C3.12207181,8.35706746 3.30938316,8.80946649 3.64965464,9.1503861 L4.57389678,10.0746282 C3.9341864,11.1855336 3.44289921,12.3716227 3.10975723,13.6108591 L1.80181848,13.6108591 C0.808225774,13.6108591 0,14.4190848 0,15.4126775 L0,19.5860262 C0,20.580267 0.808225774,21.3884928 1.80181848,21.3884928 L3.10975723,21.3884928 C3.44354734,22.627081 3.9341864,23.812522 4.57454492,24.9253718 L3.65030277,25.8496139 C3.3100313,26.1898854 3.12271995,26.6429325 3.12271995,27.1238496 C3.12271995,27.6054147 3.3100313,28.0578137 3.65030277,28.3987334 L6.60126664,31.3496972 C7.2818096,32.0308883 8.46919501,32.0315365 9.1503861,31.3496972 L10.0746282,30.4254551 C11.187478,31.0651655 12.372919,31.5564527 13.6115072,31.8902428 L13.6115072,33.1981815 C13.6115072,34.1917742 14.419733,35 15.4133257,35 L19.5866743,35 C20.580267,35 21.3884928,34.1917742 21.3884928,33.1981815 L21.3884928,31.8902428 C22.627081,31.5564527 23.812522,31.0658136 24.9253718,30.4254551 L25.8496139,31.3496972 C26.5314531,32.0315365 27.7175423,32.0302402 28.3987334,31.3496972 L31.3496972,28.3987334 C31.6899687,28.0584619 31.8772801,27.6054147 31.8772801,27.1238496 C31.8772801,26.6429325 31.6899687,26.1905335 31.3496972,25.8496139 L30.4254551,24.9253718 C31.0651655,23.812522 31.5564527,22.627081 31.8902428,21.3884928 L33.1981815,21.3884928 C34.1917742,21.3884928 35,20.580267 35,19.5866743 L35,15.4126775 C34.9993519,14.4190848 34.1911261,13.6108591 33.1975334,13.6108591 Z M33.7030796,19.5866743 C33.7030796,19.8653729 33.4762319,20.0922205 33.1975334,20.0922205 L30.8694283,20.0922205 L30.7527638,20.5932298 C30.4150849,22.0431103 29.8460214,23.4191033 29.0591841,24.683617 L28.7869669,25.1204607 L30.4325846,26.7660784 C30.6302661,26.9637599 30.6302661,27.2845873 30.4325846,27.4816207 L27.4816207,30.4325846 C27.2845873,30.629618 26.9637599,30.6309142 26.7660784,30.4325846 L25.1204607,28.7869669 L24.683617,29.0591841 C23.4197515,29.8460214 22.0437584,30.415733 20.5932298,30.7527638 L20.0922205,30.8694283 L20.0922205,33.1975334 C20.0922205,33.4762319 19.8653729,33.7030796 19.5866743,33.7030796 L15.4126775,33.7030796 C15.133979,33.7030796 14.9071313,33.4762319 14.9071313,33.1975334 L14.9071313,30.8694283 L14.4061221,30.7527638 C12.9562416,30.4150849 11.5802485,29.8460214 10.3157349,29.0591841 L9.87889113,28.7869669 L8.23327346,30.4325846 C8.0349438,30.6309142 7.71411641,30.629618 7.51773115,30.4325846 L4.56676728,27.4816207 C4.36908576,27.2839392 4.36908576,26.9631118 4.56676728,26.7660784 L6.21238496,25.1204607 L5.94016777,24.683617 C5.15333049,23.4197515 4.58361882,22.0437584 4.24658803,20.5932298 L4.12992352,20.0922205 L1.80181848,20.0922205 C1.52311994,20.0922205 1.29627229,19.8653729 1.29627229,19.5866743 L1.29627229,15.4126775 C1.29627229,15.133979 1.52311994,14.9071313 1.80181848,14.9071313 L4.12992352,14.9071313 L4.24658803,14.4061221 C4.58426696,12.9555934 5.15333049,11.5796004 5.94016777,10.3157349 L6.21238496,9.87889113 L4.56676728,8.23327346 C4.36908576,8.03559193 4.36908576,7.71476454 4.56676728,7.51773115 L7.51773115,4.56676728 C7.71476454,4.36973389 8.03559193,4.36843762 8.23327346,4.56676728 L9.87889113,6.21238496 L10.3157349,5.94016777 C11.5796004,5.15333049 12.9555934,4.58361882 14.4061221,4.24658803 L14.9071313,4.12992352 L14.9071313,1.80181848 C14.9071313,1.52311994 15.133979,1.29627229 15.4126775,1.29627229 L19.5860262,1.29627229 C19.8653729,1.29627229 20.0922205,1.52311994 20.0922205,1.80181848 L20.0922205,4.12992352 L20.5932298,4.24658803 C22.0431103,4.58426696 23.4191033,5.15333049 24.683617,5.94016777 L25.1204607,6.21238496 L26.7660784,4.56676728 C26.9644081,4.36843762 27.2852355,4.36973389 27.4816207,4.56676728 L30.4325846,7.51773115 C30.6302661,7.71541268 30.6302661,8.03624007 30.4325846,8.23327346 L28.7869669,9.87889113 L29.0591841,10.3157349 C29.8460214,11.5789522 30.415733,12.9549453 30.7527638,14.4061221 L30.8694283,14.9071313 L33.1975334,14.9071313 C33.4762319,14.9071313 33.7030796,15.133979 33.7030796,15.4126775 L33.7030796,19.5866743 Z" id="Shape"></path>
                        <path d="M17.8571429,11.4285714 C14.3124286,11.4285714 11.4285714,14.3124286 11.4285714,17.8571429 C11.4285714,21.4018571 14.3124286,24.2857143 17.8571429,24.2857143 C21.4018571,24.2857143 24.2857143,21.4018571 24.2857143,17.8571429 C24.2857143,14.3124286 21.4018571,11.4285714 17.8571429,11.4285714 Z M17.8571429,23 C15.0215,23 12.7142857,20.6927857 12.7142857,17.8571429 C12.7142857,15.0215 15.0215,12.7142857 17.8571429,12.7142857 C20.6927857,12.7142857 23,15.0215 23,17.8571429 C23,20.6927857 20.6927857,23 17.8571429,23 Z" id="Shape"></path>
                    </g>
                </g>
            </g>
        </g>
    </g>
</svg>